<svg id="Layer_1" data-name="Layer 1" xmlns="http://www.w3.org/2000/svg" viewBox="0 0 128 128"><defs><style>.cls-1{fill:#fff;}.cls-2{fill:#6d7a7d;}</style></defs><title>Artboard 14_1</title><path class="cls-1" d="M31.75,52.74H82.24a2.69,2.69,0,0,1,2.69,2.69V83.82a.75.75,0,0,1-.75.75H29.93a.87.87,0,0,1-.87-.87V55.43A2.69,2.69,0,0,1,31.75,52.74Z"/><path class="cls-2" d="M90.2,84.57H83.8a1.22,1.22,0,0,1-1.1.72H31.88a1.22,1.22,0,0,1-1.1-.72h-6.4a2.56,2.56,0,1,0,0,5.12H90.2a2.56,2.56,0,0,0,0-5.12Z"/><rect class="cls-2" x="51.74" y="85.81" width="11.09" height="1.83" rx="0.61" ry="0.61"/><path class="cls-2" d="M31.88,85.29H82.7a1.22,1.22,0,0,0,1.1-.72h-53A1.22,1.22,0,0,0,31.88,85.29Z"/><path class="cls-2" d="M30.67,84.08V54.24A1.23,1.23,0,0,1,31.88,53H72.19V49.4H31.88A4.86,4.86,0,0,0,27,54.24V84.08c0,.17,0,.33.05.49h3.69A1.17,1.17,0,0,1,30.67,84.08Z"/><rect class="cls-1" x="51.74" y="86.49" width="11.09" height="1.83" rx="0.61" ry="0.61"/><path class="cls-2" d="M83.91,84.08a1.17,1.17,0,0,1-.11.49h3.69a3.87,3.87,0,0,0,.05-.49V76.44H83.91Z"/><rect class="cls-1" x="73.9" y="37.36" width="30.34" height="31.92"/><path class="cls-2" d="M89.86,73.67a1.32,1.32,0,1,0-1.32-1.32A1.32,1.32,0,0,0,89.86,73.67Z"/><path class="cls-2" d="M102.68,35.68H75.89a3.7,3.7,0,0,0-3.7,3.7v10H75v-10a1,1,0,0,1,.93-.93h26.79a1,1,0,0,1,.93.93V68.92h1.24v5.82H87.54v1.7h15.14a3.71,3.71,0,0,0,3.7-3.69V39.38A3.71,3.71,0,0,0,102.68,35.68Z"/><path class="cls-2" d="M73.48,68.92H75V53H72.19V72.75a3.7,3.7,0,0,0,3.7,3.69h8v-1.7H73.48Z"/><rect class="cls-2" x="72.19" y="49.4" width="2.77" height="3.63"/><rect class="cls-2" x="83.91" y="74.74" width="3.63" height="1.7"/><path class="cls-2" d="M87.54,73.67h15.14a.94.94,0,0,0,.93-.92V68.92H87.54ZM89.86,71a1.32,1.32,0,1,1-1.32,1.32A1.32,1.32,0,0,1,89.86,71Z"/><path class="cls-2" d="M75,72.75a.94.94,0,0,0,.93.92h8V68.92H75Z"/><rect class="cls-2" x="83.91" y="68.92" width="3.63" height="4.75"/><path class="cls-2" d="M102.68,73.67H87.54v1.07h17.31V68.92h-1.24v3.83A.94.94,0,0,1,102.68,73.67Z"/><path class="cls-2" d="M75.89,73.67a.94.94,0,0,1-.93-.92V68.92H73.48v5.82H83.91V73.67Z"/><rect class="cls-2" x="83.91" y="73.67" width="3.63" height="1.07"/><path class="cls-1" d="M88,72.35a1.32,1.32,0,0,1,2.64,0,1.23,1.23,0,0,1-.12.55,1.32,1.32,0,0,1-1.2.77,1.3,1.3,0,0,1-1.19-.77A1.24,1.24,0,0,1,88,72.35Z"/></svg>