<svg id="Layer_1" data-name="Layer 1" xmlns="http://www.w3.org/2000/svg" viewBox="0 0 128 128"><defs><style>.cls-1{fill:#6d7a7d;}</style></defs><title>Artboard 20</title><path class="cls-1" d="M63.44,97.45A32.47,32.47,0,1,1,95,57.23l-3.87,1a28.5,28.5,0,1,0-27.68,35.3Z"/><polygon class="cls-1" points="101.16 55.47 84.42 57.75 93.93 64.98 101.16 55.47"/><path class="cls-1" d="M58.37,55.61c0-7.59,3.6-9.71,8-9.71A8,8,0,0,1,74,51.29H72.11l3.32,4.2,3.33-4.2H77.05a11,11,0,0,0-10.66-8.36c-6.06,0-11,4-11,12.68"/><path class="cls-1" d="M67.58,60.09V87h15.8V60.09H79.83V56.75h-8.7v3.34Zm13.91,25h-12V62H73V58.64h4.93V62h3.55Z"/><rect class="cls-1" x="71.58" y="64.48" width="7.79" height="18.57"/><path class="cls-1" d="M62.67,85.14h-12V62h3.55V58.64h4.93V62h3.55ZM52.3,56.75v3.34H48.75V87H64.56V60.09H61V56.75Z"/><rect class="cls-1" x="52.76" y="79.32" width="7.79" height="3.73"/></svg>