<svg id="Layer_1" data-name="Layer 1" xmlns="http://www.w3.org/2000/svg" viewBox="0 0 128 128"><defs><style>.cls-1{fill:#6d7a7d;}.cls-2{fill:#636669;}.cls-3{fill:#464749;}.cls-4{font-size:9px;fill:#fff;font-family:MyriadPro-Semibold, Myriad Pro;font-weight:700;letter-spacing:0.01em;}.cls-5{letter-spacing:0.02em;}.cls-6{letter-spacing:0.01em;}.cls-7{letter-spacing:0.05em;}.cls-8{letter-spacing:0.03em;}.cls-9{letter-spacing:0.03em;}</style></defs><title>Artboard 1</title><path class="cls-1" d="M71.39,37.89l2.43,7.83.64,2.06,2.16,0,8.19-.11-2.64,7.75-.7,2,1.77,1.24,6.69,4.73-6.69,4.72-1.77,1.25.7,2,2.64,7.75-8.19-.11-2.16,0-.64,2.07-2.43,7.82L64.83,84,63.1,82.72,61.37,84l-6.56,4.91L52.39,81.1,51.75,79l-2.16,0-8.19.11L44,71.42l.69-2L43,68.13l-6.69-4.72L43,58.68l1.76-1.24-.69-2L41.4,47.64l8.19.11,2.16,0,.64-2.06,2.42-7.83,6.56,4.91,1.73,1.29,1.73-1.29,6.56-4.91m1.55-4.76L63.1,40.49l-9.83-7.36L49.63,44.86l-12.28-.17L41.3,56.32l-10,7.09,10,7.08L37.35,82.12,49.63,82l3.64,11.73,9.83-7.35,9.84,7.35L76.58,82l12.28.17-4-11.63,10-7.08-10-7.09,4-11.63-12.28.17L72.94,33.13Z"/><path class="cls-1" d="M53.1,54.37l-3.05.75L49.25,52l5-1.5h2.63V68.1H53.1Z"/><path class="cls-1" d="M60.56,59.4v0c0-5.08,3.15-9.06,7.8-9.06s7.76,3.93,7.76,9v.05c0,5.07-3.13,9.05-7.81,9.05S60.56,64.48,60.56,59.4Zm11.6,0v0c0-3.18-1.55-5.58-3.85-5.58s-3.8,2.33-3.8,5.53v.05c0,3.2,1.52,5.58,3.85,5.58S72.16,62.57,72.16,59.4Z"/><rect class="cls-2" x="21.57" y="75.48" width="14.93" height="12.14"/><rect class="cls-2" x="89.7" y="75.48" width="14.93" height="12.14"/><polygon class="cls-3" points="36.5 87.61 30.79 82.97 36.57 82.97 36.5 87.61"/><polygon class="cls-3" points="89.77 87.34 95.48 82.7 89.7 82.7 89.77 87.34"/><rect class="cls-1" x="30.79" y="70.56" width="64.54" height="12.14"/><text class="cls-4" transform="translate(34.32 79.9)">C<tspan class="cls-5" x="5.37" y="0">om</tspan><tspan class="cls-6" x="18.53" y="0">f</tspan><tspan class="cls-5" x="21.53" y="0">o</tspan><tspan class="cls-7" x="26.83" y="0">r</tspan><tspan class="cls-5" x="30.46" y="0">t </tspan><tspan class="cls-8" x="35.94" y="0">G</tspan><tspan class="cls-9" x="42.18" y="0">lide</tspan></text></svg>