<svg id="Layer_1" data-name="Layer 1" xmlns="http://www.w3.org/2000/svg" viewBox="0 0 128 128"><defs><style>.cls-1{fill:#6d7a7d;}</style></defs><title>Artboard 15</title><path class="cls-1" d="M92.8,37H29.52a6,6,0,0,0-6,6V79.33a6,6,0,0,0,6,6H58.68v5.22H47.38V94H73.63V90.52H62.33V85.3H92.8a6,6,0,0,0,6-6V42.94A6,6,0,0,0,92.8,37ZM31.86,82.51a1.32,1.32,0,1,1,.12.55A1.3,1.3,0,0,1,31.86,82.51Zm62.43-3.18a1.46,1.46,0,0,1-.11.55h-66a1.46,1.46,0,0,1-.11-.55V42.94a1.51,1.51,0,0,1,1.49-1.49H92.8a1.51,1.51,0,0,1,1.49,1.49Z"/></svg>