<svg id="Layer_1" data-name="Layer 1" xmlns="http://www.w3.org/2000/svg" viewBox="0 0 128 128"><defs><style>.cls-1{fill:#6d7a7d;}.cls-2{fill:#fff;}</style></defs><title>Artboard 14</title><path class="cls-1" d="M122.55,85.94H119.9c0-.16,0-.31,0-.48V56.23a4.76,4.76,0,0,0-4.75-4.74H76.37V40.93a5.86,5.86,0,0,0-5.84-5.84h-62A5.86,5.86,0,0,0,2.7,40.93V76.58a5.86,5.86,0,0,0,5.85,5.84H37.11v5.12H26v3.37H51.76V87.54H40.68V82.42h20v3c0,.17,0,.33,0,.48H58.08a2.73,2.73,0,0,0-.5,0,2.51,2.51,0,0,0,0,4.92,2.73,2.73,0,0,0,.5,0h64.47a2.51,2.51,0,0,0,0-5Z"/><path class="cls-2" d="M67,54h47.45A2.53,2.53,0,0,1,117,56.52V83.19a.71.71,0,0,1-.71.71h-51a.81.81,0,0,1-.81-.81V56.52A2.53,2.53,0,0,1,67,54Z"/><path class="cls-2" d="M7.68,76.58V40.93a1.48,1.48,0,0,1,1.46-1.46h62a1.48,1.48,0,0,1,1.47,1.46V51.49H66a4.57,4.57,0,0,0-1.85.38,4.73,4.73,0,0,0-.8.43,4.91,4.91,0,0,0-1.28,1.29,4.61,4.61,0,0,0-.82,2.64V77.12H7.79A1.41,1.41,0,0,1,7.68,76.58Z"/><rect class="cls-2" x="85.3" y="86.78" width="10.86" height="1.79" rx="0.59" ry="0.59"/><path class="cls-2" d="M9.6,79.66a1.3,1.3,0,0,1,2.59,0,1.2,1.2,0,0,1-.13.54,1.28,1.28,0,0,1-2.34,0A1.34,1.34,0,0,1,9.6,79.66Z"/></svg>