<svg id="Layer_1" data-name="Layer 1" xmlns="http://www.w3.org/2000/svg" viewBox="0 0 128 128"><defs><style>.cls-1{fill:#6d7a7d;}.cls-2{fill:#636669;}.cls-3{fill:#464749;}.cls-4{font-size:9px;fill:#fff;font-family:MyriadPro-Semibold, Myriad Pro;font-weight:700;letter-spacing:0.02em;}.cls-5{letter-spacing:0.04em;}</style></defs><title>Artboard 11</title><path class="cls-1" d="M72.29,36.4l2.42,7.83.64,2.06,2.16,0,8.19-.11L83.06,53.9,82.37,56l1.76,1.24,6.7,4.73-6.7,4.72-1.76,1.25.69,2,2.64,7.76-8.19-.12-2.16,0-.64,2.07-2.42,7.82-6.56-4.91L64,81.23l-1.73,1.29-6.56,4.91-2.42-7.82-.64-2.07-2.16,0-8.19.12,2.64-7.76.69-2-1.76-1.25-6.7-4.72,6.7-4.73L45.63,56l-.69-2.05L42.3,46.15l8.19.11,2.16,0,.64-2.06,2.42-7.83,6.56,4.91L64,42.6l1.73-1.29,6.56-4.91m1.55-4.76L64,39l-9.84-7.36L50.53,43.37l-12.28-.16,4,11.62-10,7.09L42.2,69l-4,11.63,12.28-.17,3.63,11.73L64,84.84l9.84,7.35,3.63-11.73,12.28.17L85.8,69l10-7.08-10-7.09,4-11.62-12.28.16L73.84,31.64Z"/><path class="cls-1" d="M57.25,63.38l2.61-2.49A5.27,5.27,0,0,0,64,63a2.16,2.16,0,0,0,2.44-2.1v0c0-1.41-1.26-2.2-3.38-2.2H61.51l-.59-2.42L65,52.06H58.26V48.8H69.92v2.86l-4.36,4.17c2.34.4,4.64,1.63,4.64,4.84v0c0,3.25-2.37,5.65-6.22,5.65A8.37,8.37,0,0,1,57.25,63.38Z"/><rect class="cls-2" x="22.47" y="73.99" width="14.93" height="12.14"/><rect class="cls-2" x="90.6" y="73.99" width="14.93" height="12.14"/><polygon class="cls-3" points="37.4 86.13 31.69 81.48 37.47 81.48 37.4 86.13"/><polygon class="cls-3" points="90.67 85.85 96.38 81.21 90.6 81.21 90.67 85.85"/><rect class="cls-1" x="31.69" y="69.07" width="64.54" height="12.14"/><text class="cls-4" transform="translate(44.15 78.41)"><tspan xml:space="preserve"> Ele</tspan><tspan class="cls-5" x="14.35" y="0">c</tspan><tspan x="18.76" y="0">trical</tspan></text></svg>