<svg id="Layer_1" data-name="Layer 1" xmlns="http://www.w3.org/2000/svg" viewBox="0 0 128 128"><defs><style>.cls-1{fill:#fff;}.cls-2{fill:#6d7a7d;}</style></defs><title>Artboard 12</title><path class="cls-1" d="M78,25.36a1.45,1.45,0,0,0,1.31-.84H76.64A1.45,1.45,0,0,0,78,25.36Z"/><path class="cls-2" d="M59.47,95.38A32.48,32.48,0,1,1,91.94,62.91,32.51,32.51,0,0,1,59.47,95.38Zm0-61A28.5,28.5,0,1,0,88,62.91,28.53,28.53,0,0,0,59.47,34.41Z"/><rect class="cls-2" x="29.7" y="64.58" width="60.93" height="3.97" transform="translate(-28.57 53.28) rotate(-39.38)"/><path class="cls-2" d="M64.28,85.9H54.74V77.83c-4.19-.4-7.17-2.28-8.78-6a14.74,14.74,0,0,1-.73-2.74,6,6,0,0,1,0-1.28V55H50.3V52.67c0-2.47,0-4.94,0-7.41a3.23,3.23,0,0,1,3.34-3.45,3.28,3.28,0,0,1,3.16,3.51c0,3.13,0,6.26,0,9.5h5.34v-2c0-2.52,0-5,0-7.55a3.19,3.19,0,0,1,3.35-3.42c1.81,0,3.07,1.47,3.08,3.55,0,3.13,0,6.25,0,9.52h5.11v2.06c0,3.38-.18,6.76,0,10.12a9.83,9.83,0,0,1-9.46,10.77Z"/></svg>