<svg id="Layer_1" data-name="Layer 1" xmlns="http://www.w3.org/2000/svg" viewBox="0 0 128 128"><defs><style>.cls-1{fill:#6d7a7d;}</style></defs><title>Artboard 18</title><path class="cls-1" d="M47.55,45.1c0-11,5.19-14,11.58-14a11.59,11.59,0,0,1,10.94,7.78H67.39l4.81,6.08L77,38.86H74.53a15.89,15.89,0,0,0-15.4-12.07c-8.75,0-15.87,5.74-15.87,18.31"/><path class="cls-1" d="M60.85,51.57V90.49H83.68V51.57H78.55V46.75H66v4.82ZM81,87.76H63.58V54.3H68.7V49.48h7.13V54.3H81Z"/><rect class="cls-1" x="66.64" y="57.91" width="11.26" height="26.83"/><path class="cls-1" d="M53.76,87.76H36.38V54.3h5.13V49.48h7.12V54.3h5.13Zm-15-41v4.82H33.65V90.49H56.48V51.57H51.36V46.75Z"/><rect class="cls-1" x="39.44" y="79.35" width="11.26" height="5.39"/></svg>