<svg id="Layer_1" data-name="Layer 1" xmlns="http://www.w3.org/2000/svg" viewBox="0 0 128 128"><defs><style>.cls-1{fill:#6d7a7d;}</style></defs><title>Artboard 21</title><path class="cls-1" d="M91.09,59.72H42.3V43.61H91.09ZM44.36,57.66H89v-12H44.36Z"/><path class="cls-1" d="M91.09,75H42.3V58.88H91.09ZM44.36,72.93H89V61H44.36Z"/><path class="cls-1" d="M44.17,45.21H89.45a0,0,0,0,1,0,0v0A6.43,6.43,0,0,1,83,51.65H50.6a6.43,6.43,0,0,1-6.43-6.43v0A0,0,0,0,1,44.17,45.21Z"/><path class="cls-1" d="M44.17,60.79H89.45a0,0,0,0,1,0,0v0A6.43,6.43,0,0,1,83,67.22H50.6a6.43,6.43,0,0,1-6.43-6.43v0A0,0,0,0,1,44.17,60.79Z"/></svg>