<svg id="Layer_1" data-name="Layer 1" xmlns="http://www.w3.org/2000/svg" viewBox="0 0 128 128"><defs><style>.cls-1{fill:#6d7a7d;}</style></defs><title>Artboard 17_1</title><path class="cls-1" d="M91,57.12H42.16V41H91ZM44.22,55.06H88.89v-12H44.22Z"/><path class="cls-1" d="M91,72.39H42.16V56.28H91ZM44.22,70.33H88.89v-12H44.22Z"/><path class="cls-1" d="M91,87.66H42.16V71.55H91ZM44.22,85.6H88.89v-12H44.22Z"/><path class="cls-1" d="M44,42.76H89.31a0,0,0,0,1,0,0v0a6.43,6.43,0,0,1-6.43,6.43H50.46A6.43,6.43,0,0,1,44,42.76v0A0,0,0,0,1,44,42.76Z"/><path class="cls-1" d="M44,57.88H89.31a0,0,0,0,1,0,0v0a6.43,6.43,0,0,1-6.43,6.43H50.46A6.43,6.43,0,0,1,44,57.88v0a0,0,0,0,1,0,0Z"/><path class="cls-1" d="M44,73.46H89.31a0,0,0,0,1,0,0v0a6.43,6.43,0,0,1-6.43,6.43H50.46A6.43,6.43,0,0,1,44,73.46v0A0,0,0,0,1,44,73.46Z"/></svg>