<svg id="Layer_1" data-name="Layer 1" xmlns="http://www.w3.org/2000/svg" viewBox="0 0 128 128"><defs><style>.cls-1{fill:#6d7a7d;}.cls-2{fill:#636669;}.cls-3{fill:#464749;}.cls-4{font-size:9px;fill:#fff;font-family:MyriadPro-Semibold, Myriad Pro;font-weight:700;letter-spacing:0.02em;}.cls-5{letter-spacing:0.02em;}.cls-6{letter-spacing:0.04em;}.cls-7{letter-spacing:0.02em;}.cls-8{letter-spacing:0.03em;}</style></defs><title>Artboard 1_1</title><path class="cls-1" d="M72.29,38.49l2.42,7.82.64,2.06,2.16,0,8.19-.11L83.06,56l-.69,2,1.76,1.25L90.83,64l-6.7,4.72L82.37,70l.69,2,2.64,7.76-8.19-.11-2.16,0-.64,2.06-2.42,7.82-6.56-4.9L64,83.31l-1.73,1.3-6.56,4.9-2.42-7.82-.64-2.06-2.16,0-8.19.11L44.94,72l.69-2-1.76-1.25L37.17,64l6.7-4.72L45.63,58l-.69-2L42.3,48.23l8.19.11,2.16,0,.64-2.06,2.42-7.82,6.56,4.9L64,44.69l1.73-1.3,6.56-4.9m1.55-4.77L64,41.08l-9.84-7.36L50.53,45.46l-12.28-.17,4,11.63L32.17,64l10,7.08-4,11.63,12.28-.17,3.63,11.74L64,86.92l9.84,7.36,3.63-11.74,12.28.17-4-11.63,10-7.08-10-7.08,4-11.63-12.28.17L73.84,33.72Z"/><path class="cls-1" d="M66.17,54.67h-8V51.43H70.42v2.82l-7.63,14.2H58.56Z"/><rect class="cls-2" x="22.47" y="76.07" width="14.93" height="12.14"/><rect class="cls-2" x="90.6" y="76.07" width="14.93" height="12.14"/><polygon class="cls-3" points="37.4 88.21 31.69 83.57 37.47 83.57 37.4 88.21"/><polygon class="cls-3" points="90.67 87.94 96.38 83.3 90.6 83.3 90.67 87.94"/><rect class="cls-1" x="31.69" y="71.16" width="64.54" height="12.14"/><text class="cls-4" transform="translate(43.58 80.5)">S<tspan class="cls-5" x="4.86" y="0">tru</tspan><tspan class="cls-6" x="17.02" y="0">c</tspan><tspan class="cls-5" x="21.42" y="0">tu</tspan><tspan class="cls-7" x="30.15" y="0">r</tspan><tspan class="cls-8" x="33.5" y="0">al</tspan></text></svg>